<?xml version="1.0" encoding="UTF-8"?>
<svg version="1.1" xmlns="http://www.w3.org/2000/svg" width="3264" height="3264">
<path d="M0 0 C1.91472872 -0.00748068 3.82944778 -0.01813898 5.74414062 -0.03204346 C8.39706521 -0.04970363 11.04966083 -0.05406918 13.70263672 -0.05422974 C14.88842819 -0.06494003 14.88842819 -0.06494003 16.09817505 -0.0758667 C21.52806602 -0.05301918 21.52806602 -0.05301918 23.75732422 2.17623901 C23.58395703 6.90845304 21.36672006 9.05961898 18.10832214 12.29953003 C17.37623448 13.0356859 17.37623448 13.0356859 16.62935716 13.7867136 C14.9928002 15.42751471 13.34237446 17.05360698 11.69165039 18.68014526 C10.51487611 19.85415388 9.3389891 21.02905244 8.16392517 22.20477295 C4.97012473 25.39544768 1.76421405 28.57370222 -1.44383454 31.75004196 C-4.79931236 35.07678824 -8.14307207 38.41526812 -11.48796082 41.75265503 C-17.82902432 48.07611471 -24.17978582 54.38973619 -30.53443879 60.69953632 C-39.85510137 69.95509871 -49.16323179 79.22325111 -58.46887493 88.49391174 C-59.15169074 89.17415814 -59.83450656 89.85440454 -60.53801376 90.55526447 C-61.89972158 91.91187415 -63.26139648 93.26851688 -64.62303752 94.6251936 C-68.60848901 98.59540053 -72.59746146 102.56202674 -76.58950579 106.52560425 C-79.0745638 108.99362294 -81.55765678 111.46361231 -84.04036522 113.93399429 C-85.19075513 115.07772928 -86.34203062 116.22057434 -87.4942627 117.36245346 C-89.06941542 118.92362521 -90.64141113 120.48791166 -92.21272278 122.052948 C-93.09265805 122.9267662 -93.97259333 123.80058441 -94.87919331 124.70088196 C-97.16142327 127.09114044 -99.19819077 129.58264184 -101.24267578 132.17623901 C-102.4400456 133.27444777 -103.6671053 134.34177526 -104.93017578 135.36373901 C-107.50413392 137.42716645 -107.50413392 137.42716645 -109.24267578 140.17623901 C-109.90267578 140.17623901 -110.56267578 140.17623901 -111.24267578 140.17623901 C-111.24267578 140.83623901 -111.24267578 141.49623901 -111.24267578 142.17623901 C-111.90267578 142.17623901 -112.56267578 142.17623901 -113.24267578 142.17623901 C-113.49017578 142.79498901 -113.73767578 143.41373901 -113.99267578 144.05123901 C-115.44896217 146.52692588 -116.62080084 147.12748904 -119.24267578 148.17623901 C-119.24267578 148.83623901 -119.24267578 149.49623901 -119.24267578 150.17623901 C-119.90267578 150.17623901 -120.56267578 150.17623901 -121.24267578 150.17623901 C-121.57267578 151.16623901 -121.90267578 152.15623901 -122.24267578 153.17623901 C-122.90267578 153.17623901 -123.56267578 153.17623901 -124.24267578 153.17623901 C-124.64486328 154.13530151 -124.64486328 154.13530151 -125.05517578 155.11373901 C-126.24267578 157.17623901 -126.24267578 157.17623901 -129.24267578 158.17623901 C-129.57267578 158.83623901 -129.90267578 159.49623901 -130.24267578 160.17623901 C-130.57267578 160.83623901 -130.90267578 161.49623901 -131.24267578 162.17623901 C-132.23267578 162.50623901 -133.22267578 162.83623901 -134.24267578 163.17623901 C-134.91744206 164.50549169 -135.58234374 165.83975713 -136.24267578 167.17623901 C-137.79331953 168.90445546 -139.40514711 170.57832863 -141.04989624 172.21723938 C-141.54289266 172.71123909 -142.03588908 173.20523879 -142.54382479 173.71420819 C-144.19573169 175.36706711 -145.8546774 177.01267412 -147.51367188 178.65841675 C-148.70001651 179.84255995 -149.88591357 181.0271517 -151.07139587 182.2121582 C-153.62488759 184.76271645 -156.18150452 187.31008543 -158.74058151 189.8550396 C-162.78788297 193.88007611 -166.82808572 197.91218756 -170.86734009 201.94529724 C-177.25839156 208.32496502 -183.65409679 214.69994386 -190.05184042 221.07289988 C-201.504888 232.48164606 -212.95240545 243.89593444 -224.3946749 255.31549031 C-228.41014922 259.32256286 -232.42841513 263.32680874 -236.4489553 267.32879817 C-238.95158316 269.8207688 -241.45216962 272.31478051 -243.95225716 274.80929947 C-245.11072616 275.96430341 -246.27006578 277.1184349 -247.43034554 278.2716198 C-249.01639015 279.84818056 -250.59929144 281.42783384 -252.18148804 283.008255 C-253.06749884 283.89074637 -253.95350964 284.77323774 -254.86636925 285.68247128 C-257.15113287 288.08017112 -259.1925675 290.57802278 -261.24267578 293.17623901 C-262.54530046 294.37709614 -263.87813631 295.54622976 -265.24267578 296.67623901 C-268.3147151 299.29400265 -270.74945587 301.9952343 -273.24267578 305.17623901 C-274.02642578 305.79498901 -274.81017578 306.41373901 -275.61767578 307.05123901 C-278.39349986 309.29833469 -280.49260892 311.71404245 -282.77001953 314.44577026 C-284.79690573 316.82749595 -287.00367707 318.99465053 -289.24267578 321.17623901 C-290.10892578 322.04248901 -290.97517578 322.90873901 -291.86767578 323.80123901 C-293.04330078 324.97686401 -293.04330078 324.97686401 -294.24267578 326.17623901 C-294.79955078 326.77436401 -295.35642578 327.37248901 -295.93017578 327.98873901 C-297.24267578 329.17623901 -297.24267578 329.17623901 -299.24267578 329.17623901 C-299.90267578 330.49623901 -300.56267578 331.81623901 -301.24267578 333.17623901 C-301.90267578 333.17623901 -302.56267578 333.17623901 -303.24267578 333.17623901 C-303.24267578 333.83623901 -303.24267578 334.49623901 -303.24267578 335.17623901 C-303.90267578 335.17623901 -304.56267578 335.17623901 -305.24267578 335.17623901 C-305.90267578 336.49623901 -306.56267578 337.81623901 -307.24267578 339.17623901 C-307.90267578 339.17623901 -308.56267578 339.17623901 -309.24267578 339.17623901 C-309.58425437 340.00558504 -309.58425437 340.00558504 -309.93273354 340.85168552 C-311.62619486 343.85681148 -313.75681216 345.93255427 -316.20175171 348.36909485 C-316.96574766 349.13459572 -316.96574766 349.13459572 -317.74517787 349.91556126 C-319.45236144 351.62369712 -321.16658852 353.32458344 -322.88085938 355.02560425 C-324.10661234 356.24915587 -325.3319178 357.47315594 -326.55680847 358.6975708 C-329.19542359 361.33325214 -331.83716534 363.96574489 -334.4813652 366.59582329 C-338.66308488 370.75528114 -342.83770908 374.92181144 -347.01138306 379.08934021 C-353.61493033 385.68150321 -360.22313188 392.26897787 -366.8333708 398.85443026 C-378.6671975 410.64395632 -390.49549332 422.43902495 -402.31854308 434.23935848 C-406.46782398 438.38023634 -410.61989706 442.5182881 -414.77424216 446.65408504 C-417.35990488 449.22909247 -419.9435278 451.80613939 -422.52665138 454.3836937 C-423.72382209 455.57739857 -424.92186347 456.77023099 -426.12084389 457.96211815 C-427.75943502 459.59122944 -429.39488741 461.2234303 -431.02963257 462.85639954 C-431.94514074 463.76838828 -432.86064892 464.68037703 -433.80389977 465.62000179 C-436.29407447 468.14382021 -436.29407447 468.14382021 -438.44349098 471.00872898 C-439.03722197 471.72400729 -439.63095295 472.4392856 -440.24267578 473.17623901 C-440.90267578 473.17623901 -441.56267578 473.17623901 -442.24267578 473.17623901 C-442.57267578 474.16623901 -442.90267578 475.15623901 -443.24267578 476.17623901 C-444.94970703 477.82467651 -444.94970703 477.82467651 -447.05517578 479.55123901 C-450.20299515 482.20351615 -452.69184155 484.93864172 -455.24267578 488.17623901 C-455.90267578 488.17623901 -456.56267578 488.17623901 -457.24267578 488.17623901 C-457.46955078 488.73311401 -457.69642578 489.28998901 -457.93017578 489.86373901 C-460.19868027 493.86062787 -462.86167524 496.7159055 -467.24267578 498.17623901 C-468.45149675 500.17640368 -468.45149675 500.17640368 -469.24267578 502.17623901 C-469.90267578 502.17623901 -470.56267578 502.17623901 -471.24267578 502.17623901 C-471.24267578 502.83623901 -471.24267578 503.49623901 -471.24267578 504.17623901 C-471.90267578 504.17623901 -472.56267578 504.17623901 -473.24267578 504.17623901 C-473.24267578 504.83623901 -473.24267578 505.49623901 -473.24267578 506.17623901 C-474.61767578 507.80123901 -474.61767578 507.80123901 -476.24267578 509.17623901 C-476.90267578 509.17623901 -477.56267578 509.17623901 -478.24267578 509.17623901 C-478.45923828 509.71764526 -478.67580078 510.25905151 -478.89892578 510.81686401 C-480.70767575 513.99269245 -483.15991377 516.38351983 -485.74267578 518.92623901 C-486.24154297 519.43284058 -486.74041016 519.93944214 -487.25439453 520.46139526 C-490.98926439 524.17623901 -490.98926439 524.17623901 -493.24267578 524.17623901 C-493.49791016 524.75599487 -493.75314453 525.33575073 -494.01611328 525.93307495 C-495.36852355 528.40639214 -496.88000102 530.07226011 -498.86767578 532.06686401 C-499.57408203 532.77584839 -500.28048828 533.48483276 -501.00830078 534.21530151 C-502.11431641 535.30971558 -502.11431641 535.30971558 -503.24267578 536.42623901 C-503.98001953 537.17131714 -504.71736328 537.91639526 -505.47705078 538.68405151 C-506.18345703 539.38787964 -506.88986328 540.09170776 -507.61767578 540.81686401 C-508.26478516 541.46171753 -508.91189453 542.10657104 -509.57861328 542.77096558 C-511.24267578 544.17623901 -511.24267578 544.17623901 -513.24267578 544.17623901 C-513.55108398 544.97142944 -513.55108398 544.97142944 -513.86572266 545.78268433 C-515.81691962 549.17444586 -518.5181196 551.73674488 -521.27392578 554.47311401 C-521.86564575 555.06674744 -522.45736572 555.66038086 -523.0670166 556.27200317 C-524.31533159 557.52167619 -525.56616401 558.76883893 -526.81933594 560.01364136 C-528.74275575 561.92631853 -530.65523677 563.8494702 -532.56689453 565.77389526 C-533.78109718 566.98677699 -534.99591971 568.19903854 -536.21142578 569.41061401 C-536.78542114 569.98865784 -537.3594165 570.56670166 -537.95080566 571.16226196 C-542.01274144 575.17623901 -542.01274144 575.17623901 -544.24267578 575.17623901 C-544.45923828 575.71764526 -544.67580078 576.25905151 -544.89892578 576.81686401 C-546.70767575 579.99269245 -549.15991377 582.38351983 -551.74267578 584.92623901 C-552.24154297 585.43284058 -552.74041016 585.93944214 -553.25439453 586.46139526 C-556.98926439 590.17623901 -556.98926439 590.17623901 -559.24267578 590.17623901 C-559.45279297 590.71087769 -559.66291016 591.24551636 -559.87939453 591.7963562 C-561.77228593 595.10078051 -564.37333104 597.59218404 -567.05517578 600.25436401 C-567.62469971 600.82580139 -568.19422363 601.39723877 -568.78100586 601.98599243 C-569.98224258 603.1885869 -571.18599575 604.38867235 -572.39208984 605.58639526 C-574.24308533 607.42664619 -576.08313024 609.27736534 -577.92236328 611.12936401 C-579.09099302 612.29667286 -580.26024262 613.46336153 -581.43017578 614.62936401 C-581.98229736 615.18553406 -582.53441895 615.7417041 -583.10327148 616.31472778 C-587.01273943 620.17623901 -587.01273943 620.17623901 -589.24267578 620.17623901 C-589.49339844 620.75148315 -589.74412109 621.32672729 -590.00244141 621.91940308 C-591.40996405 624.48065097 -593.02437604 626.21681294 -595.08642578 628.28561401 C-595.83794922 629.03971558 -596.58947266 629.79381714 -597.36376953 630.57077026 C-598.14880859 631.34807495 -598.93384766 632.12537964 -599.74267578 632.92623901 C-600.52771484 633.71901245 -601.31275391 634.51178589 -602.12158203 635.32858276 C-603.24886719 636.45200073 -603.24886719 636.45200073 -604.39892578 637.59811401 C-605.43243164 638.62823608 -605.43243164 638.62823608 -606.48681641 639.6791687 C-608.24267578 641.17623901 -608.24267578 641.17623901 -610.24267578 641.17623901 C-610.49017578 642.19717651 -610.49017578 642.19717651 -610.74267578 643.23873901 C-612.58001315 646.83685804 -614.87929682 648.59441777 -617.95361328 651.14889526 C-621.32281084 654.1328774 -624.2162142 657.49092967 -627.18798828 660.86373901 C-629.45003363 663.40961514 -631.79652119 665.80899264 -634.24267578 668.17623901 C-632.63708982 672.1892742 -629.81196126 674.86178483 -626.78320312 677.83102417 C-625.94883476 678.66101173 -625.94883476 678.66101173 -625.09761047 679.50776672 C-623.89230419 680.70547595 -622.6846933 681.90086944 -621.47504807 683.09419632 C-619.56307402 684.98063323 -617.65742697 686.87325746 -615.75332642 688.76763916 C-611.71366475 692.78445714 -607.66622539 696.79338196 -603.61767578 700.80123901 C-598.91992779 705.45185843 -594.22538532 710.10561848 -589.53917313 714.76786423 C-587.65744481 716.63658289 -585.76981543 718.49920161 -583.88192749 720.36169434 C-582.73544508 721.5009157 -581.58924028 722.64041654 -580.44335938 723.78024292 C-579.91350937 724.29976028 -579.38365936 724.81927765 -578.8377533 725.35453796 C-577.60086373 726.59106172 -576.41589555 727.87914913 -575.24267578 729.17623901 C-575.24267578 729.83623901 -575.24267578 730.49623901 -575.24267578 731.17623901 C-574.68580078 731.40311401 -574.12892578 731.62998901 -573.55517578 731.86373901 C-570.5936317 733.54461539 -568.62152486 735.74128294 -566.24267578 738.17623901 C-565.09726318 739.32165161 -565.09726318 739.32165161 -563.92871094 740.49020386 C-520.24267578 784.17623901 -520.24267578 784.17623901 -517.63574219 786.81832886 C-515.2183386 789.27531533 -515.2183386 789.27531533 -512.24267578 791.61373901 C-509.17032736 794.23803663 -506.81754707 797.073189 -504.24267578 800.17623901 C-502.59627614 801.53451872 -500.92971771 802.86878152 -499.24267578 804.17623901 C-496.7245226 806.57155546 -494.43463508 808.9285496 -492.30517578 811.67623901 C-489.89353062 814.59944526 -487.17538659 816.78218938 -484.24267578 819.17623901 C-481.63833006 821.65656827 -479.29450977 824.11107629 -477.05517578 826.92623901 C-475.43958501 829.25111289 -475.43958501 829.25111289 -473.24267578 830.17623901 C-473.24267578 830.83623901 -473.24267578 831.49623901 -473.24267578 832.17623901 C-472.58267578 832.17623901 -471.92267578 832.17623901 -471.24267578 832.17623901 C-471.24267578 832.83623901 -471.24267578 833.49623901 -471.24267578 834.17623901 C-470.60330078 834.44436401 -469.96392578 834.71248901 -469.30517578 834.98873901 C-467.24267578 836.17623901 -467.24267578 836.17623901 -466.24267578 839.17623901 C-465.25267578 839.50623901 -464.26267578 839.83623901 -463.24267578 840.17623901 C-460.60181462 842.61395701 -458.2927709 845.11326229 -456.05517578 847.92623901 C-454.43958501 850.25111289 -454.43958501 850.25111289 -452.24267578 851.17623901 C-452.24267578 851.83623901 -452.24267578 852.49623901 -452.24267578 853.17623901 C-451.58267578 853.17623901 -450.92267578 853.17623901 -450.24267578 853.17623901 C-450.24267578 853.83623901 -450.24267578 854.49623901 -450.24267578 855.17623901 C-449.25267578 855.50623901 -448.26267578 855.83623901 -447.24267578 856.17623901 C-444.55517578 858.61373901 -444.55517578 858.61373901 -442.24267578 861.17623901 C-442.24267578 861.83623901 -442.24267578 862.49623901 -442.24267578 863.17623901 C-441.58267578 863.17623901 -440.92267578 863.17623901 -440.24267578 863.17623901 C-439.01164479 864.60689665 -437.78626987 866.04330302 -436.60595703 867.51608276 C-433.81455619 870.91535312 -430.89810214 873.73928811 -427.24267578 876.17623901 C-427.24267578 876.83623901 -427.24267578 877.49623901 -427.24267578 878.17623901 C-426.58267578 878.17623901 -425.92267578 878.17623901 -425.24267578 878.17623901 C-423.11767578 880.05123901 -423.11767578 880.05123901 -421.24267578 882.17623901 C-421.24267578 882.83623901 -421.24267578 883.49623901 -421.24267578 884.17623901 C-420.58267578 884.17623901 -419.92267578 884.17623901 -419.24267578 884.17623901 C-418.70642578 884.85686401 -418.17017578 885.53748901 -417.61767578 886.23873901 C-415.01097556 889.4628156 -412.14489989 891.90762481 -408.94970703 894.52780151 C-407.24267578 896.17623901 -407.24267578 896.17623901 -406.24267578 899.17623901 C-405.58267578 899.17623901 -404.92267578 899.17623901 -404.24267578 899.17623901 C-402.11767578 901.05123901 -402.11767578 901.05123901 -400.24267578 903.17623901 C-400.24267578 903.83623901 -400.24267578 904.49623901 -400.24267578 905.17623901 C-399.60330078 905.44436401 -398.96392578 905.71248901 -398.30517578 905.98873901 C-396.24267578 907.17623901 -396.24267578 907.17623901 -395.24267578 910.17623901 C-393.92734168 910.87775054 -392.59149986 911.54149827 -391.24267578 912.17623901 C-389.49267578 913.67623901 -389.49267578 913.67623901 -388.24267578 915.17623901 C-388.24267578 915.83623901 -388.24267578 916.49623901 -388.24267578 917.17623901 C-387.60330078 917.44436401 -386.96392578 917.71248901 -386.30517578 917.98873901 C-384.24267578 919.17623901 -384.24267578 919.17623901 -383.24267578 922.17623901 C-382.25267578 922.50623901 -381.26267578 922.83623901 -380.24267578 923.17623901 C-380.24267578 923.83623901 -380.24267578 924.49623901 -380.24267578 925.17623901 C-379.68064453 925.41342651 -379.11861328 925.65061401 -378.53955078 925.89498901 C-375.72373536 927.46571598 -373.76312162 929.39095366 -371.49267578 931.67623901 C-370.69345703 932.47030151 -369.89423828 933.26436401 -369.07080078 934.08248901 C-367.24267578 936.17623901 -367.24267578 936.17623901 -367.24267578 938.17623901 C-366.25267578 938.50623901 -365.26267578 938.83623901 -364.24267578 939.17623901 C-364.24267578 939.83623901 -364.24267578 940.49623901 -364.24267578 941.17623901 C-363.66743164 941.42696167 -363.0921875 941.67768433 -362.49951172 941.93600464 C-359.93826382 943.34352728 -358.20210186 944.95793927 -356.13330078 947.01998901 C-355.37919922 947.77151245 -354.62509766 948.52303589 -353.84814453 949.29733276 C-352.6821875 950.47489136 -352.6821875 950.47489136 -351.49267578 951.67623901 C-350.69990234 952.46127808 -349.90712891 953.24631714 -349.09033203 954.05514526 C-348.34138672 954.8066687 -347.59244141 955.55819214 -346.82080078 956.33248901 C-346.13405273 957.02149292 -345.44730469 957.71049683 -344.73974609 958.42037964 C-343.24267578 960.17623901 -343.24267578 960.17623901 -343.24267578 962.17623901 C-342.62392578 962.42373901 -342.00517578 962.67123901 -341.36767578 962.92623901 C-338.83908951 964.4136427 -338.52428574 965.6130191 -337.24267578 968.17623901 C-336.4030127 968.56005737 -336.4030127 968.56005737 -335.54638672 968.95162964 C-332.30406845 970.675185 -329.94528633 973.18829211 -327.38330078 975.76998901 C-326.55943878 976.59098083 -326.55943878 976.59098083 -325.71893311 977.42855835 C-324.56341719 978.58271682 -323.41040893 979.73939068 -322.25976562 980.89840698 C-320.49194078 982.67697848 -318.71365448 984.44458665 -316.93408203 986.21139526 C-315.81234607 987.33445209 -314.69123027 988.45812877 -313.57080078 989.58248901 C-313.03650452 990.11273682 -312.50220825 990.64298462 -311.95172119 991.18930054 C-308.24267578 994.94630048 -308.24267578 994.94630048 -308.24267578 997.17623901 C-307.70935355 997.38452174 -307.17603132 997.59280447 -306.62654781 997.8073988 C-303.29019865 999.72315973 -300.78636462 1002.36452402 -298.10072327 1005.0776825 C-297.48830054 1005.68839637 -296.87587782 1006.29911024 -296.24489683 1006.9283306 C-294.19127621 1008.97865363 -292.14489158 1011.03604962 -290.09838867 1013.09347534 C-288.6285271 1014.563901 -287.1582251 1016.03388652 -285.68751526 1017.50346375 C-281.69131713 1021.49908699 -277.70132559 1025.50085705 -273.712394 1029.50373292 C-269.53827238 1033.69035047 -265.35849283 1037.87131144 -261.17930603 1042.0528717 C-253.25883197 1049.9795681 -245.34346911 1057.91134818 -237.42991966 1065.84495705 C-228.44182008 1074.85535101 -219.44809697 1083.86012269 -210.45386899 1092.8643986 C-195.07803623 1108.25760689 -179.70645093 1123.65504603 -164.33953857 1139.05715942 C-163.36568896 1140.03322782 -163.36568896 1140.03322782 -162.37216562 1141.02901477 C-161.17987919 1142.22404146 -159.98762171 1143.41909703 -158.79540116 1144.61418945 C-155.61330581 1147.80369008 -152.42907097 1150.99103256 -149.24267578 1154.17623901 C-143.77392578 1159.64498901 -138.30517578 1165.11373901 -132.83642578 1170.58248901 C-132.22105957 1171.19713013 -131.60569336 1171.81177124 -130.97167969 1172.44503784 C-129.89285073 1173.5252378 -128.81655605 1174.60798202 -127.74414062 1175.69454956 C-125.8532668 1177.60742653 -124.01033074 1179.35355497 -121.86767578 1180.98873901 C-119.54334995 1182.92567721 -117.75798362 1184.82187223 -115.80517578 1187.11373901 C-112.84697987 1190.57887089 -109.78735889 1193.32508086 -106.24267578 1196.17623901 C-103.48756618 1198.79695302 -100.95618634 1201.48465005 -98.55517578 1204.42623901 C-96.53844359 1207.19366095 -96.53844359 1207.19366095 -94.24267578 1208.17623901 C-94.24267578 1208.83623901 -94.24267578 1209.49623901 -94.24267578 1210.17623901 C-93.58267578 1210.17623901 -92.92267578 1210.17623901 -92.24267578 1210.17623901 C-92.24267578 1210.83623901 -92.24267578 1211.49623901 -92.24267578 1212.17623901 C-91.58267578 1212.17623901 -90.92267578 1212.17623901 -90.24267578 1212.17623901 C-90.24267578 1212.83623901 -90.24267578 1213.49623901 -90.24267578 1214.17623901 C-89.58267578 1214.17623901 -88.92267578 1214.17623901 -88.24267578 1214.17623901 C-88.24267578 1214.83623901 -88.24267578 1215.49623901 -88.24267578 1216.17623901 C-87.25267578 1216.50623901 -86.26267578 1216.83623901 -85.24267578 1217.17623901 C-85.24267578 1217.83623901 -85.24267578 1218.49623901 -85.24267578 1219.17623901 C-84.58267578 1219.17623901 -83.92267578 1219.17623901 -83.24267578 1219.17623901 C-81.88880642 1220.82626729 -80.55589436 1222.49367771 -79.24267578 1224.17623901 C-78.58267578 1224.50623901 -77.92267578 1224.83623901 -77.24267578 1225.17623901 C-77.24267578 1225.83623901 -77.24267578 1226.49623901 -77.24267578 1227.17623901 C-76.58267578 1227.17623901 -75.92267578 1227.17623901 -75.24267578 1227.17623901 C-75.24267578 1227.83623901 -75.24267578 1228.49623901 -75.24267578 1229.17623901 C-74.58267578 1229.17623901 -73.92267578 1229.17623901 -73.24267578 1229.17623901 C-73.24267578 1229.83623901 -73.24267578 1230.49623901 -73.24267578 1231.17623901 C-71.92267578 1231.83623901 -70.60267578 1232.49623901 -69.24267578 1233.17623901 C-69.24267578 1233.83623901 -69.24267578 1234.49623901 -69.24267578 1235.17623901 C-68.58267578 1235.17623901 -67.92267578 1235.17623901 -67.24267578 1235.17623901 C-67.24267578 1235.83623901 -67.24267578 1236.49623901 -67.24267578 1237.17623901 C-66.68580078 1237.40311401 -66.12892578 1237.62998901 -65.55517578 1237.86373901 C-62.59014131 1239.54659641 -60.58913889 1241.71245275 -58.24267578 1244.17623901 C-57.09798828 1245.25905151 -57.09798828 1245.25905151 -55.93017578 1246.36373901 C-54.24267578 1248.17623901 -54.24267578 1248.17623901 -54.24267578 1250.17623901 C-53.66517578 1250.40311401 -53.08767578 1250.62998901 -52.49267578 1250.86373901 C-49.6529527 1252.52024414 -48.29043042 1254.6019189 -46.24267578 1257.17623901 C-44.53014705 1258.73308332 -42.76380457 1260.21084848 -40.98876953 1261.69577026 C-34.59610613 1267.11594795 -34.59610613 1267.11594795 -33.24267578 1271.17623901 C-32.58267578 1271.17623901 -31.92267578 1271.17623901 -31.24267578 1271.17623901 C-31.24267578 1271.83623901 -31.24267578 1272.49623901 -31.24267578 1273.17623901 C-30.62392578 1273.42373901 -30.00517578 1273.67123901 -29.36767578 1273.92623901 C-26.89198891 1275.38252541 -26.29142576 1276.55436408 -25.24267578 1279.17623901 C-24.58267578 1279.17623901 -23.92267578 1279.17623901 -23.24267578 1279.17623901 C-20.61767578 1281.55123901 -20.61767578 1281.55123901 -18.24267578 1284.17623901 C-18.24267578 1284.83623901 -18.24267578 1285.49623901 -18.24267578 1286.17623901 C-17.58267578 1286.17623901 -16.92267578 1286.17623901 -16.24267578 1286.17623901 C-16.24267578 1286.83623901 -16.24267578 1287.49623901 -16.24267578 1288.17623901 C-15.25267578 1288.50623901 -14.26267578 1288.83623901 -13.24267578 1289.17623901 C-13.24267578 1289.83623901 -13.24267578 1290.49623901 -13.24267578 1291.17623901 C-12.25267578 1291.50623901 -11.26267578 1291.83623901 -10.24267578 1292.17623901 C-10.24267578 1292.83623901 -10.24267578 1293.49623901 -10.24267578 1294.17623901 C-9.58267578 1294.17623901 -8.92267578 1294.17623901 -8.24267578 1294.17623901 C-8.24267578 1294.83623901 -8.24267578 1295.49623901 -8.24267578 1296.17623901 C-7.62392578 1296.42373901 -7.00517578 1296.67123901 -6.36767578 1296.92623901 C-3.83908951 1298.4136427 -3.52428574 1299.6130191 -2.24267578 1302.17623901 C-0.91747076 1302.85892039 0.41544603 1303.52694312 1.75732422 1304.17623901 C2.08732422 1305.16623901 2.41732422 1306.15623901 2.75732422 1307.17623901 C3.59263672 1307.57842651 3.59263672 1307.57842651 4.44482422 1307.98873901 C7.79496584 1309.70908201 10.38157928 1312.26199189 12.75732422 1315.17623901 C12.75732422 1315.83623901 12.75732422 1316.49623901 12.75732422 1317.17623901 C13.68544922 1317.57842651 13.68544922 1317.57842651 14.63232422 1317.98873901 C16.75732422 1319.17623901 16.75732422 1319.17623901 18.75732422 1322.17623901 C18.24008284 1325.69348039 18.24008284 1325.69348039 16.75732422 1327.17623901 C15.18930945 1327.32913107 13.61476786 1327.41583403 12.04043579 1327.47520447 C10.54145783 1327.53426924 10.54145783 1327.53426924 9.01219749 1327.59452724 C7.9208481 1327.63188519 6.82949871 1327.66924314 5.70507812 1327.70773315 C4.00602042 1327.77005048 4.00602042 1327.77005048 2.27263832 1327.83362675 C-9.28514394 1328.24174755 -20.84349793 1328.48795386 -32.40673828 1328.67233276 C-33.60245075 1328.69211119 -34.79816322 1328.71188961 -36.03010941 1328.73226738 C-83.22205298 1329.50247068 -130.42156235 1329.83210138 -177.61767578 1330.23873901 C-179.50973055 1330.25505796 -179.50973055 1330.25505796 -181.44000864 1330.27170658 C-219.3740402 1330.5983986 -257.30822479 1330.90243486 -295.24267578 1331.17623901 C-296.23151166 1331.18340219 -297.22034754 1331.19056536 -298.23914814 1331.19794559 C-318.95186246 1331.34764429 -339.6642874 1331.47746477 -360.37750244 1331.52972412 C-365.21413191 1331.54210021 -370.05058953 1331.56330494 -374.887146 1331.5925293 C-380.34222015 1331.62481237 -385.79696835 1331.63835052 -391.25213432 1331.63469505 C-393.16299642 1331.63631664 -395.07386713 1331.64447052 -396.98466682 1331.65999794 C-399.50785579 1331.67930929 -402.02977463 1331.67419459 -404.55297852 1331.66207886 C-405.27139608 1331.67332322 -405.98981365 1331.68456758 -406.73000145 1331.69615269 C-411.52734014 1331.63525472 -413.82997531 1330.49302268 -417.24267578 1327.17623901 C-418.12955078 1326.35123901 -419.01642578 1325.52623901 -419.93017578 1324.67623901 C-422.24267578 1322.17623901 -422.24267578 1322.17623901 -423.30517578 1319.98873901 C-424.09165863 1318.02543904 -424.09165863 1318.02543904 -426.06201172 1317.29220581 C-428.56659668 1316.01047072 -430.10971793 1314.52092159 -432.07080078 1312.50827026 C-432.78880859 1311.77930542 -433.50681641 1311.05034058 -434.24658203 1310.29928589 C-435.35839844 1309.15556519 -435.35839844 1309.15556519 -436.49267578 1307.98873901 C-441.41973414 1302.94353627 -446.35455305 1298.08195359 -451.80029297 1293.59298706 C-452.2762793 1293.12546021 -452.75226563 1292.65793335 -453.24267578 1292.17623901 C-453.24267578 1291.51623901 -453.24267578 1290.85623901 -453.24267578 1290.17623901 C-453.90267578 1290.17623901 -454.56267578 1290.17623901 -455.24267578 1290.17623901 C-455.24267578 1289.51623901 -455.24267578 1288.85623901 -455.24267578 1288.17623901 C-455.81324707 1287.9323645 -456.38381836 1287.68848999 -456.97167969 1287.43722534 C-459.65305657 1285.94837224 -461.43476288 1284.19329841 -463.57861328 1282.00045776 C-464.39587891 1281.17223511 -465.21314453 1280.34401245 -466.05517578 1279.49069214 C-466.90080078 1278.62379761 -467.74642578 1277.75690308 -468.61767578 1276.86373901 C-473.66290036 1271.713729 -478.65181053 1266.72788003 -484.24267578 1262.17623901 C-485.92119828 1260.52151312 -487.5866762 1258.85350492 -489.24267578 1257.17623901 C-490.00966797 1256.40401001 -490.77666016 1255.63178101 -491.56689453 1254.83615112 C-492.34677734 1254.04990356 -493.12666016 1253.26365601 -493.93017578 1252.45358276 C-495.7009411 1250.67356718 -497.4717764 1248.89362122 -499.24267578 1247.11373901 C-500.13212891 1246.21590698 -501.02158203 1245.31807495 -501.93798828 1244.39303589 C-502.80166016 1243.52614136 -503.66533203 1242.65924683 -504.55517578 1241.76608276 C-505.33505859 1240.98096313 -506.11494141 1240.19584351 -506.91845703 1239.38693237 C-509.24643875 1237.09778149 -509.24643875 1237.09778149 -512.03564453 1235.01437378 C-512.76396484 1234.40778931 -513.49228516 1233.80120483 -514.24267578 1233.17623901 C-514.24267578 1232.51623901 -514.24267578 1231.85623901 -514.24267578 1231.17623901 C-514.79213867 1230.9534729 -515.34160156 1230.73070679 -515.90771484 1230.50119019 C-518.94712951 1228.77650351 -521.18716963 1226.45972575 -523.60205078 1223.97702026 C-524.36415863 1223.20711006 -524.36415863 1223.20711006 -525.1416626 1222.42164612 C-526.76351228 1220.78204202 -528.37853238 1219.13592749 -529.99267578 1217.48873901 C-532.10900307 1215.33555866 -534.22856468 1213.1856411 -536.35205078 1211.03952026 C-536.8673233 1210.51865845 -537.38259583 1209.99779663 -537.91348267 1209.46115112 C-541.25932671 1206.10206593 -544.71374143 1202.94571549 -548.32080078 1199.8732605 C-552.18737304 1196.45906541 -555.75251071 1192.72736809 -559.36767578 1189.05123901 C-565.35202481 1182.89886923 -565.35202481 1182.89886923 -571.79736328 1177.24655151 C-572.60431641 1176.56334839 -573.41126953 1175.88014526 -574.24267578 1175.17623901 C-574.24267578 1174.51623901 -574.24267578 1173.85623901 -574.24267578 1173.17623901 C-574.90267578 1173.17623901 -575.56267578 1173.17623901 -576.24267578 1173.17623901 C-581.01011764 1168.87391343 -581.01011764 1168.87391343 -582.24267578 1165.17623901 C-583.56711083 1164.49206504 -584.90222563 1163.82847793 -586.24267578 1163.17623901 C-587.74622623 1161.82254121 -589.19929473 1160.41182241 -590.61376953 1158.96530151 C-591.43554688 1158.13256714 -592.25732422 1157.29983276 -593.10400391 1156.44186401 C-593.95414063 1155.57045776 -594.80427734 1154.69905151 -595.68017578 1153.80123901 C-597.36401259 1152.08277647 -599.05014037 1150.36655514 -600.73876953 1148.65280151 C-601.48312256 1147.89048218 -602.22747559 1147.12816284 -602.99438477 1146.34274292 C-605.25356683 1144.0880201 -605.25356683 1144.0880201 -608.02416992 1142.02145386 C-608.75627686 1141.41253296 -609.48838379 1140.80361206 -610.24267578 1140.17623901 C-610.24267578 1139.51623901 -610.24267578 1138.85623901 -610.24267578 1138.17623901 C-611.23267578 1137.84623901 -612.22267578 1137.51623901 -613.24267578 1137.17623901 C-613.24267578 1136.51623901 -613.24267578 1135.85623901 -613.24267578 1135.17623901 C-613.78778809 1134.95782349 -614.33290039 1134.73940796 -614.89453125 1134.51437378 C-618.01783005 1132.73450263 -620.32690549 1130.31935087 -622.81298828 1127.76608276 C-623.59644119 1126.9748275 -623.59644119 1126.9748275 -624.39572144 1126.16758728 C-626.05787912 1124.48766772 -627.71317383 1122.8011963 -629.36767578 1121.11373901 C-631.03018552 1119.42360885 -632.69413532 1117.73496181 -634.36105347 1116.04917908 C-635.39664798 1115.0013293 -636.42955761 1113.95081788 -637.45950317 1112.89741516 C-640.08857892 1110.19262472 -640.08857892 1110.19262472 -643.24267578 1108.17623901 C-643.24267578 1107.51623901 -643.24267578 1106.85623901 -643.24267578 1106.17623901 C-644.23267578 1105.84623901 -645.22267578 1105.51623901 -646.24267578 1105.17623901 C-646.24267578 1104.51623901 -646.24267578 1103.85623901 -646.24267578 1103.17623901 C-646.80583496 1102.93977661 -647.36899414 1102.70331421 -647.94921875 1102.45968628 C-650.77173849 1100.8801689 -652.67457452 1098.95188718 -654.93798828 1096.64108276 C-655.81841797 1095.74969604 -656.69884766 1094.85830933 -657.60595703 1093.93991089 C-658.97300781 1092.54095581 -658.97300781 1092.54095581 -660.36767578 1091.11373901 C-662.18057193 1089.26651735 -663.99556936 1087.42135481 -665.81298828 1085.57858276 C-666.61494629 1084.75865845 -667.4169043 1083.93873413 -668.24316406 1083.09396362 C-670.09863939 1081.12477561 -670.09863939 1081.12477561 -672.24267578 1080.17623901 C-672.24267578 1079.51623901 -672.24267578 1078.85623901 -672.24267578 1078.17623901 C-673.20173828 1077.77405151 -673.20173828 1077.77405151 -674.18017578 1077.36373901 C-676.24267578 1076.17623901 -676.24267578 1076.17623901 -677.24267578 1073.17623901 C-678.56814727 1072.49407513 -679.90309064 1071.83025268 -681.24267578 1071.17623901 C-682.78434394 1069.7850836 -684.27475772 1068.33623689 -685.72705078 1066.85202026 C-686.58041016 1065.98770386 -687.43376953 1065.12338745 -688.31298828 1064.23287964 C-689.63943359 1062.87453003 -689.63943359 1062.87453003 -690.99267578 1061.48873901 C-696.36486741 1056.00894414 -701.71481569 1050.59831235 -707.56005859 1045.61959839 C-709.93693796 1043.58069665 -712.12864309 1041.48846227 -714.24267578 1039.17623901 C-714.24267578 1038.51623901 -714.24267578 1037.85623901 -714.24267578 1037.17623901 C-714.81244141 1036.93518433 -715.38220703 1036.69412964 -715.96923828 1036.44577026 C-718.68550912 1034.92895235 -720.46712715 1033.10860995 -722.61767578 1030.86373901 C-725.24907834 1028.15839622 -727.84820538 1025.58464902 -730.80517578 1023.23873901 C-731.60955078 1022.55811401 -732.41392578 1021.87748901 -733.24267578 1021.17623901 C-733.24267578 1020.51623901 -733.24267578 1019.85623901 -733.24267578 1019.17623901 C-733.90267578 1019.17623901 -734.56267578 1019.17623901 -735.24267578 1019.17623901 C-736.97163903 1017.54967315 -738.60536659 1015.89195828 -740.24267578 1014.17623901 C-741.42860694 1012.98010607 -742.6171996 1011.78660843 -743.80786133 1010.59518433 C-744.78863899 1009.60956512 -744.78863899 1009.60956512 -745.78923035 1008.60403442 C-748.72739375 1005.65250803 -751.6681932 1002.70361409 -754.60913086 999.75485229 C-756.16275191 998.19616527 -757.71547966 996.63658737 -759.26733398 995.07614136 C-761.51068905 992.82071124 -763.75721026 990.56847811 -766.00439453 988.31686401 C-766.70022141 987.61587585 -767.39604828 986.9148877 -768.11296082 986.19265747 C-768.75735611 985.54818665 -769.4017514 984.90371582 -770.06567383 984.23971558 C-770.63239304 983.67077576 -771.19911224 983.10183594 -771.78300476 982.51565552 C-773.22194522 981.07193074 -773.22194522 981.07193074 -775.24267578 980.17623901 C-775.24267578 979.51623901 -775.24267578 978.85623901 -775.24267578 978.17623901 C-776.23267578 977.84623901 -777.22267578 977.51623901 -778.24267578 977.17623901 C-778.24267578 976.51623901 -778.24267578 975.85623901 -778.24267578 975.17623901 C-779.23267578 974.84623901 -780.22267578 974.51623901 -781.24267578 974.17623901 C-781.24267578 973.51623901 -781.24267578 972.85623901 -781.24267578 972.17623901 C-781.90267578 972.17623901 -782.56267578 972.17623901 -783.24267578 972.17623901 C-783.24267578 971.51623901 -783.24267578 970.85623901 -783.24267578 970.17623901 C-783.81034668 969.93526489 -784.37801758 969.69429077 -784.96289062 969.4460144 C-787.69911174 967.92201718 -789.52899385 966.09845609 -791.71923828 963.85983276 C-792.55455078 963.01356323 -793.38986328 962.1672937 -794.25048828 961.29537964 C-795.11416016 960.41043823 -795.97783203 959.52549683 -796.86767578 958.61373901 C-798.58681763 956.86026519 -800.30806591 955.10885326 -802.03173828 953.35983276 C-802.79180176 952.58180298 -803.55186523 951.80377319 -804.33496094 951.00216675 C-806.11825203 949.11537773 -806.11825203 949.11537773 -808.24267578 948.17623901 C-808.24267578 947.51623901 -808.24267578 946.85623901 -808.24267578 946.17623901 C-809.23267578 945.84623901 -810.22267578 945.51623901 -811.24267578 945.17623901 C-811.24267578 944.51623901 -811.24267578 943.85623901 -811.24267578 943.17623901 C-811.79375 942.95186157 -812.34482422 942.72748413 -812.91259766 942.49630737 C-815.9659825 940.7664612 -818.06517907 938.55903236 -820.52392578 936.05514526 C-821.2669696 935.30429909 -821.2669696 935.30429909 -822.02502441 934.5382843 C-823.60242304 932.94313295 -825.17295989 931.34144832 -826.74267578 929.73873901 C-828.31323211 928.14047266 -829.88525783 926.54372481 -831.46032715 924.9499054 C-832.89044439 923.50200909 -834.3157133 922.04932875 -835.74072266 920.59640503 C-838.12007934 918.18416716 -838.12007934 918.18416716 -840.57275391 916.47286987 C-841.12382813 916.04498169 -841.67490234 915.61709351 -842.24267578 915.17623901 C-842.24267578 914.51623901 -842.24267578 913.85623901 -842.24267578 913.17623901 C-842.81630859 912.93220337 -843.38994141 912.68816772 -843.98095703 912.43673706 C-846.64184386 910.9537752 -848.34039819 909.22294918 -850.43017578 907.00827026 C-851.21134766 906.19809448 -851.99251953 905.3879187 -852.79736328 904.55319214 C-854.43343388 902.83740883 -856.06361906 901.11599501 -857.68798828 899.38912964 C-858.46916016 898.58282104 -859.25033203 897.77651245 -860.05517578 896.94577026 C-860.76287109 896.19916138 -861.47056641 895.45255249 -862.19970703 894.68331909 C-864.07296024 892.95258839 -864.07296024 892.95258839 -866.11170959 893.34468079 C-868.85098122 894.41361556 -870.31172532 895.88514124 -872.38110352 897.97409058 C-873.18551376 898.77872742 -873.98992401 899.58336426 -874.81871033 900.41238403 C-875.67920486 901.28836243 -876.5396994 902.16434082 -877.42626953 903.06686401 C-878.76504906 904.4120108 -878.76504906 904.4120108 -880.13087463 905.78433228 C-882.50335968 908.17077457 -884.86914627 910.56348354 -887.23193359 912.95950317 C-889.62402096 915.38213683 -892.02447415 917.79644763 -894.42431641 920.21139526 C-898.70182973 924.51868864 -902.97192002 928.83321695 -907.23800659 933.15182495 C-908.89385907 934.82398665 -910.55562664 936.48961324 -912.22338867 938.14987183 C-913.99800904 939.93071442 -915.63796136 941.74328755 -917.24267578 943.67623901 C-919.74174422 946.68648054 -922.47213013 949.41957694 -925.24267578 952.17623901 C-926.44609862 953.3790661 -927.64919869 954.58221617 -928.85205078 955.78561401 C-937.77913411 964.71269735 -946.70621745 973.63978068 -955.63330078 982.56686401 C-956.25487061 983.1892395 -956.87644043 983.81161499 -957.5168457 984.45285034 C-958.59965022 985.53412309 -959.68532281 986.61253935 -960.77514648 987.68673706 C-962.66329652 989.55092146 -964.36211874 991.3399201 -965.93017578 993.48873901 C-966.57986328 994.32405151 -966.57986328 994.32405151 -967.24267578 995.17623901 C-967.90267578 995.17623901 -968.56267578 995.17623901 -969.24267578 995.17623901 C-969.48203857 995.74157349 -969.72140137 996.30690796 -969.96801758 996.88937378 C-971.51330003 999.66176618 -973.37780715 1001.53642688 -975.63720703 1003.76608276 C-976.51054688 1004.63297729 -977.38388672 1005.49987183 -978.28369141 1006.39303589 C-979.19828125 1007.29086792 -980.11287109 1008.18869995 -981.05517578 1009.11373901 C-981.95816406 1010.00770386 -982.86115234 1010.9016687 -983.79150391 1011.82272339 C-985.48234266 1013.49616924 -987.17523156 1015.16754807 -988.87084961 1016.83615112 C-989.65355225 1017.60838013 -990.43625488 1018.38060913 -991.24267578 1019.17623901 C-992.12528076 1020.04579224 -993.00788574 1020.91534546 -993.91723633 1021.81124878 C-996.28240213 1024.12676782 -996.28240213 1024.12676782 -998.24267578 1026.73873901 C-1000.3519144 1029.30937358 -1002.64715964 1031.11313644 -1005.24267578 1033.17623901 C-1005.79955078 1033.91873901 -1006.35642578 1034.66123901 -1006.93017578 1035.42623901 C-1007.36330078 1036.00373901 -1007.79642578 1036.58123901 -1008.24267578 1037.17623901 C-1008.90267578 1037.17623901 -1009.56267578 1037.17623901 -1010.24267578 1037.17623901 C-1010.24267578 1037.83623901 -1010.24267578 1038.49623901 -1010.24267578 1039.17623901 C-1010.90267578 1039.17623901 -1011.56267578 1039.17623901 -1012.24267578 1039.17623901 C-1012.57267578 1040.16623901 -1012.90267578 1041.15623901 -1013.24267578 1042.17623901 C-1013.90267578 1042.17623901 -1014.56267578 1042.17623901 -1015.24267578 1042.17623901 C-1015.57267578 1043.16623901 -1015.90267578 1044.15623901 -1016.24267578 1045.17623901 C-1016.90267578 1045.17623901 -1017.56267578 1045.17623901 -1018.24267578 1045.17623901 C-1018.51080078 1045.77436401 -1018.77892578 1046.37248901 -1019.05517578 1046.98873901 C-1020.24184984 1049.17471755 -1021.33866691 1050.58956495 -1023.24267578 1052.17623901 C-1023.90267578 1052.17623901 -1024.56267578 1052.17623901 -1025.24267578 1052.17623901 C-1025.50983398 1052.77009399 -1025.77699219 1053.36394897 -1026.05224609 1053.97579956 C-1027.26103208 1056.21016955 -1028.47317975 1057.62376285 -1030.28955078 1059.38327026 C-1030.88767578 1059.97043823 -1031.48580078 1060.5576062 -1032.10205078 1061.16256714 C-1032.72595703 1061.76520386 -1033.34986328 1062.36784058 -1033.99267578 1062.98873901 C-1038.24632162 1067.12072338 -1042.27960115 1071.26382354 -1045.98974609 1075.89767456 C-1046.60994629 1076.53056396 -1046.60994629 1076.53056396 -1047.24267578 1077.17623901 C-1047.90267578 1077.17623901 -1048.56267578 1077.17623901 -1049.24267578 1077.17623901 C-1049.24267578 1077.83623901 -1049.24267578 1078.49623901 -1049.24267578 1079.17623901 C-1050.66845703 1080.54342651 -1050.66845703 1080.54342651 -1052.55517578 1082.05123901 C-1055.21890868 1084.24237414 -1057.20398103 1086.3864462 -1059.24267578 1089.17623901 C-1059.90267578 1089.17623901 -1060.56267578 1089.17623901 -1061.24267578 1089.17623901 C-1061.6502562 1090.072286 -1061.6502562 1090.072286 -1062.06607056 1090.98643494 C-1063.22144443 1093.13672492 -1064.33976458 1094.51035966 -1066.06835938 1096.21310425 C-1066.63589935 1096.77726547 -1067.20343933 1097.3414267 -1067.78817749 1097.92268372 C-1068.3996463 1098.5206929 -1069.01111511 1099.11870209 -1069.64111328 1099.73483276 C-1070.27248199 1100.36099991 -1070.90385071 1100.98716705 -1071.55435181 1101.63230896 C-1073.57076251 1103.63093467 -1075.59372536 1105.62275117 -1077.61767578 1107.61373901 C-1079.63362919 1109.60198752 -1081.64807581 1111.59170383 -1083.65957642 1113.5844574 C-1084.91002237 1114.82274351 -1086.16313207 1116.0583473 -1087.41928101 1117.29084778 C-1090.60163394 1120.4369824 -1093.49474708 1123.63330478 -1096.24267578 1127.17623901 C-1097.88811358 1128.86386753 -1099.55556155 1130.53027391 -1101.24267578 1132.17623901 C-1102.12955078 1133.10436401 -1103.01642578 1134.03248901 -1103.93017578 1134.98873901 C-1106.24267578 1137.17623901 -1106.24267578 1137.17623901 -1108.24267578 1137.17623901 C-1108.63086739 1138.05240623 -1108.63086739 1138.05240623 -1109.02690125 1138.9462738 C-1110.33742747 1141.3500319 -1111.755163 1142.92967275 -1113.69506836 1144.85568237 C-1114.39952591 1145.55998886 -1115.10398346 1146.26429535 -1115.82978821 1146.98994446 C-1116.59123642 1147.7410701 -1117.35268463 1148.49219574 -1118.13720703 1149.26608276 C-1119.31376106 1150.43839195 -1119.31376106 1150.43839195 -1120.51408386 1151.63438416 C-1123.02312428 1154.1322372 -1125.53901555 1156.62306011 -1128.05517578 1159.11373901 C-1129.73857723 1160.78710577 -1131.42152526 1162.4609288 -1133.10400391 1164.13522339 C-1136.20056402 1167.21545822 -1139.29969696 1170.29305115 -1142.40209961 1173.36740112 C-1148.82861085 1179.71104121 -1148.82861085 1179.71104121 -1154.93017578 1186.36373901 C-1162.3255164 1194.65510213 -1170.3482568 1202.36481166 -1178.24267578 1210.17623901 C-1183.03904713 1208.73162226 -1185.99020655 1205.85014502 -1189.41845703 1202.36373901 C-1189.98847946 1201.79421509 -1190.55850189 1201.22469116 -1191.14579773 1200.63790894 C-1192.34356658 1199.43780738 -1193.53766276 1198.23403033 -1194.72827148 1197.02682495 C-1196.55763009 1195.17375289 -1198.40007297 1193.33448383 -1200.24462891 1191.49655151 C-1201.40753466 1190.32807272 -1202.56967164 1189.15882821 -1203.73095703 1187.98873901 C-1204.56050652 1187.16055664 -1204.56050652 1187.16055664 -1205.40681458 1186.31564331 C-1209.24267578 1182.40729321 -1209.24267578 1182.40729321 -1209.24267578 1180.17623901 C-1210.23267578 1179.84623901 -1211.22267578 1179.51623901 -1212.24267578 1179.17623901 C-1212.24267578 1178.51623901 -1212.24267578 1177.85623901 -1212.24267578 1177.17623901 C-1212.86142578 1176.92873901 -1213.48017578 1176.68123901 -1214.11767578 1176.42623901 C-1216.64626205 1174.93883533 -1216.96106582 1173.73945893 -1218.24267578 1171.17623901 C-1218.90267578 1170.84623901 -1219.56267578 1170.51623901 -1220.24267578 1170.17623901 C-1222.75885169 1168.91815106 -1223.0475337 1167.64619932 -1224.24267578 1165.17623901 C-1225.23267578 1164.84623901 -1226.22267578 1164.51623901 -1227.24267578 1164.17623901 C-1227.24267578 1163.51623901 -1227.24267578 1162.85623901 -1227.24267578 1162.17623901 C-1228.10527008 1161.82005745 -1228.10527008 1161.82005745 -1228.98529053 1161.4566803 C-1231.72894256 1159.90041721 -1233.30717446 1158.08174696 -1235.36083984 1155.68917847 C-1240.15483207 1150.23097093 -1245.201462 1145.08953405 -1250.35205078 1139.96920776 C-1251.28188782 1139.04078568 -1252.21172485 1138.11236359 -1253.16973877 1137.1558075 C-1255.61172626 1134.71758752 -1258.05669939 1132.28238428 -1260.50238037 1129.84786987 C-1262.98926203 1127.37127511 -1265.47327087 1124.89180254 -1267.95751953 1122.41256714 C-1271.59367681 1118.7843131 -1275.23134071 1115.15757757 -1278.87060547 1111.53244019 C-1280.03529358 1110.37027481 -1280.03529358 1110.37027481 -1281.22351074 1109.18463135 C-1282.73344008 1107.68275782 -1284.25357291 1106.19113008 -1285.77880859 1104.70480347 C-1288.08551286 1102.33752878 -1290.28201164 1099.90725745 -1292.48071289 1097.43991089 C-1296.96369474 1092.43185133 -1301.64773101 1087.67409341 -1306.43408203 1082.95748901 C-1308.13668152 1081.26751131 -1309.83915194 1079.57740356 -1311.54150391 1077.88717651 C-1314.19305704 1075.26062169 -1316.84620752 1072.63571622 -1319.50170898 1070.01315308 C-1322.08763373 1067.45722855 -1324.66746874 1064.8952839 -1327.24658203 1062.33248901 C-1328.45103722 1061.14822327 -1328.45103722 1061.14822327 -1329.67982483 1059.94003296 C-1330.77743385 1058.84749207 -1330.77743385 1058.84749207 -1331.8972168 1057.73287964 C-1332.54513687 1057.09241699 -1333.19305695 1056.45195435 -1333.86061096 1055.79208374 C-1335.24267578 1054.17623901 -1335.24267578 1054.17623901 -1335.24267578 1052.17623901 C-1335.84208984 1051.91584839 -1336.44150391 1051.65545776 -1337.05908203 1051.38717651 C-1339.39205953 1050.09339651 -1340.54045359 1048.88155138 -1342.18017578 1046.80123901 C-1343.97161598 1044.61918403 -1345.5201083 1042.954293 -1347.74267578 1041.17623901 C-1350.4268747 1039.02887988 -1352.45141137 1036.70758834 -1354.61767578 1034.05514526 C-1356.70639518 1031.64006346 -1358.97804853 1029.42428564 -1361.24267578 1027.17623901 C-1362.42057836 1026.0038002 -1363.59838726 1024.83126725 -1364.77612305 1023.65866089 C-1365.42351944 1023.01449219 -1366.07091583 1022.37032349 -1366.7379303 1021.70663452 C-1369.66019987 1018.79777765 -1372.57979512 1015.88624273 -1375.49926758 1012.97457886 C-1377.0374381 1011.44145686 -1378.57650216 1009.90923082 -1380.11645508 1008.37789917 C-1382.34970663 1006.1567991 -1384.57969337 1003.93246553 -1386.80908203 1001.70748901 C-1387.49458633 1001.027146 -1388.18009064 1000.34680298 -1388.8863678 999.64584351 C-1392.23769453 996.29490968 -1395.31179311 992.90868363 -1398.24267578 989.17623901 C-1399.06767578 988.51623901 -1399.89267578 987.85623901 -1400.74267578 987.17623901 C-1403.38069729 985.06582181 -1405.1690964 982.83301259 -1407.24267578 980.17623901 C-1408.88811358 978.4886105 -1410.55556155 976.82220412 -1412.24267578 975.17623901 C-1413.39187641 974.02677417 -1414.54098046 972.87721257 -1415.68954468 971.72711182 C-1417.52432315 969.89500117 -1419.36532341 968.06925734 -1421.20678711 966.24386597 C-1425.28526994 962.20094299 -1429.35766947 958.15195061 -1433.42797852 954.10079956 C-1435.18663153 952.35227911 -1436.94706433 950.60554702 -1438.70922852 948.86056519 C-1441.25238809 946.34152933 -1443.78915341 943.81620881 -1446.32470703 941.28952026 C-1447.11835159 940.50619827 -1447.91199615 939.72287628 -1448.72969055 938.91581726 C-1449.45431992 938.19133896 -1450.17894928 937.46686066 -1450.92553711 936.72042847 C-1451.56775711 936.08264969 -1452.20997711 935.44487091 -1452.87165833 934.7877655 C-1454.24267578 933.17623901 -1454.24267578 933.17623901 -1454.24267578 931.17623901 C-1455.23267578 930.84623901 -1456.22267578 930.51623901 -1457.24267578 930.17623901 C-1457.24267578 929.51623901 -1457.24267578 928.85623901 -1457.24267578 928.17623901 C-1457.90267578 928.17623901 -1458.56267578 928.17623901 -1459.24267578 928.17623901 C-1460.66065979 926.73577881 -1460.66065979 926.73577881 -1462.3190918 924.72653198 C-1466.32055401 920.0238571 -1470.62362838 915.70292144 -1475.02001953 911.37155151 C-1476.6835589 909.72063873 -1478.34696666 908.06959332 -1480.01025391 906.41842651 C-1482.6113377 903.84231273 -1485.21400619 901.2678374 -1487.8190918 898.69577026 C-1490.34870939 896.19616868 -1492.87222562 893.69053715 -1495.39501953 891.18405151 C-1496.18238998 890.41014069 -1496.96976044 889.63622986 -1497.7809906 888.83886719 C-1498.85825157 887.76667435 -1498.85825157 887.76667435 -1499.95727539 886.67282104 C-1500.59346298 886.04409088 -1501.22965057 885.41536072 -1501.88511658 884.76757812 C-1503.24267578 883.17623901 -1503.24267578 883.17623901 -1503.24267578 881.17623901 C-1504.23267578 880.84623901 -1505.22267578 880.51623901 -1506.24267578 880.17623901 C-1506.24267578 879.51623901 -1506.24267578 878.85623901 -1506.24267578 878.17623901 C-1506.88205078 877.90811401 -1507.52142578 877.63998901 -1508.18017578 877.36373901 C-1510.24267578 876.17623901 -1510.24267578 876.17623901 -1511.24267578 873.17623901 C-1512.23267578 872.84623901 -1513.22267578 872.51623901 -1514.24267578 872.17623901 C-1514.24267578 871.51623901 -1514.24267578 870.85623901 -1514.24267578 870.17623901 C-1514.90267578 870.17623901 -1515.56267578 870.17623901 -1516.24267578 870.17623901 C-1517.79345703 868.60202026 -1517.79345703 868.60202026 -1519.55517578 866.48873901 C-1522.30392313 863.20877308 -1525.2056796 860.1916089 -1528.24267578 857.17623901 C-1529.01437103 856.40676437 -1529.78606628 855.63728973 -1530.58114624 854.84449768 C-1531.3838797 854.04478043 -1532.18661316 853.24506317 -1533.01367188 852.42111206 C-1537.56938696 847.88141482 -1542.12288015 843.33950036 -1546.67476463 838.79596233 C-1549.41808032 836.05786108 -1552.16232385 833.32070327 -1554.90869141 830.58566284 C-1557.5815865 827.92371435 -1560.25195786 825.25925711 -1562.92067337 822.59311867 C-1563.9299506 821.58567112 -1564.94009868 820.57909514 -1565.95118332 819.57346153 C-1571.13321286 814.41827365 -1576.2038296 809.25073084 -1580.89541626 803.64115906 C-1582.1982634 802.05027471 -1582.1982634 802.05027471 -1584.24267578 801.17623901 C-1584.24267578 800.51623901 -1584.24267578 799.85623901 -1584.24267578 799.17623901 C-1584.90267578 799.17623901 -1585.56267578 799.17623901 -1586.24267578 799.17623901 C-1587.79345703 797.60202026 -1587.79345703 797.60202026 -1589.55517578 795.48873901 C-1592.30024662 792.2131601 -1595.20900208 789.18101168 -1598.24267578 786.17623901 C-1598.82319199 785.60062729 -1599.40370819 785.02501556 -1600.0018158 784.43196106 C-1601.33195415 783.11345617 -1602.66236392 781.79522504 -1603.99299622 780.47721863 C-1607.04765663 777.44925444 -1610.09708371 774.41604322 -1613.14624023 771.38253784 C-1614.75938786 769.77952655 -1616.37431427 768.17830341 -1617.9909668 766.5788269 C-1620.32563175 764.26828674 -1622.65389627 761.95146556 -1624.98095703 759.63327026 C-1625.70898026 758.91556961 -1626.43700348 758.19786896 -1627.18708801 757.4584198 C-1628.18393867 756.46179573 -1628.18393867 756.46179573 -1629.20092773 755.44503784 C-1629.78985306 754.86055374 -1630.37877838 754.27606964 -1630.98554993 753.6738739 C-1632.24267578 752.17623901 -1632.24267578 752.17623901 -1632.24267578 750.17623901 C-1632.86142578 749.92873901 -1633.48017578 749.68123901 -1634.11767578 749.42623901 C-1636.59336265 747.96995262 -1637.19392581 746.79811395 -1638.24267578 744.17623901 C-1638.90267578 744.17623901 -1639.56267578 744.17623901 -1640.24267578 744.17623901 C-1640.24267578 743.51623901 -1640.24267578 742.85623901 -1640.24267578 742.17623901 C-1640.90267578 742.17623901 -1641.56267578 742.17623901 -1642.24267578 742.17623901 C-1643.60682678 740.78961182 -1643.60682678 740.78961182 -1645.22338867 738.82223511 C-1649.71934255 733.53912524 -1654.61819988 728.71247238 -1659.55126953 723.84030151 C-1660.52812469 722.87040727 -1661.50460419 721.90013453 -1662.48072815 720.92950439 C-1666.59132214 716.84315968 -1670.7078177 712.76279575 -1674.82836914 708.68649292 C-1677.36286329 706.178703 -1679.89252693 703.66612484 -1682.41923714 701.15049362 C-1683.38026401 700.19568071 -1684.34318491 699.2427703 -1685.30801201 698.29179764 C-1686.64805699 696.97086419 -1687.98155238 695.64329617 -1689.31469727 694.31539917 C-1690.45551003 693.18577255 -1690.45551003 693.18577255 -1691.61936951 692.0333252 C-1693.24267578 690.17623901 -1693.24267578 690.17623901 -1693.24267578 688.17623901 C-1693.88205078 687.90811401 -1694.52142578 687.63998901 -1695.18017578 687.36373901 C-1697.24267578 686.17623901 -1697.24267578 686.17623901 -1698.24267578 683.17623901 C-1699.56864082 682.49503499 -1700.90308125 681.83023344 -1702.24267578 681.17623901 C-1703.98876953 679.40670776 -1703.98876953 679.40670776 -1705.68017578 677.36373901 C-1709.68887947 672.55515478 -1714.17000349 668.24276433 -1718.62080383 663.84941101 C-1720.85120041 661.64587188 -1723.07619213 659.43690707 -1725.30102539 657.22775269 C-1726.47766046 656.06127091 -1727.65606978 654.8965763 -1728.83618164 653.73361206 C-1730.54536491 652.04855844 -1732.24812007 650.35723994 -1733.94970703 648.66452026 C-1734.48086624 648.14368362 -1735.01202545 647.62284698 -1735.5592804 647.08622742 C-1736.82560516 645.82029758 -1738.03969039 644.50250555 -1739.24267578 643.17623901 C-1739.24267578 642.51623901 -1739.24267578 641.85623901 -1739.24267578 641.17623901 C-1739.79955078 640.94936401 -1740.35642578 640.72248901 -1740.93017578 640.48873901 C-1743.89521025 638.80588161 -1745.89621267 636.64002528 -1748.24267578 634.17623901 C-1749.00580078 633.45436401 -1749.76892578 632.73248901 -1750.55517578 631.98873901 C-1752.24267578 630.17623901 -1752.24267578 630.17623901 -1752.24267578 628.17623901 C-1752.90267578 628.17623901 -1753.56267578 628.17623901 -1754.24267578 628.17623901 C-1755.65283203 626.74264526 -1755.65283203 626.74264526 -1757.30517578 624.73873901 C-1760.76955397 620.63253918 -1764.5144898 616.93703801 -1768.42236328 613.25436401 C-1770.2705512 611.14441558 -1770.86015688 609.91556794 -1771.24267578 607.17623901 C-1767.51178298 604.60571505 -1765.02311436 603.79929769 -1760.50764465 603.78424072 C-1759.36248383 603.77314774 -1758.217323 603.76205475 -1757.03746033 603.75062561 C-1755.79009598 603.75363174 -1754.54273163 603.75663788 -1753.25756836 603.75973511 C-1751.92331175 603.7523511 -1750.5890619 603.74364486 -1749.25482178 603.73371887 C-1745.63675792 603.71041582 -1742.01886572 603.70524705 -1738.40073609 603.70305967 C-1734.60569696 603.69738746 -1730.81076859 603.67410213 -1727.01579285 603.65246582 C-1719.82073817 603.61394217 -1712.62571526 603.58972904 -1705.43058366 603.57134116 C-1692.56622697 603.53798418 -1679.70196769 603.47993037 -1666.83772391 603.41734946 C-1662.32872523 603.39597184 -1657.81975863 603.38063628 -1653.31072104 603.37050986 C-1650.49356234 603.36344131 -1647.67642638 603.35255389 -1644.85928345 603.340868 C-1642.9480423 603.33420919 -1641.03678613 603.33240544 -1639.12553406 603.33079529 C-1633.20182321 603.30292923 -1627.41192036 603.07222979 -1621.52633572 602.40557289 C-1617.87191426 602.03858189 -1614.22880352 602.00771706 -1610.55859375 601.98678589 C-1609.75378067 601.97849258 -1608.94896759 601.97019928 -1608.11976624 601.96165466 C-1606.39078483 601.94440845 -1604.66178205 601.92920142 -1602.93276596 601.9158783 C-1600.18031031 601.89456662 -1597.42795911 601.86756706 -1594.67556763 601.83920288 C-1588.82297892 601.77989622 -1582.97033862 601.72762778 -1577.11767578 601.67623901 C-1570.34733487 601.61655703 -1563.57704493 601.55384736 -1556.80679703 601.48435974 C-1554.12405361 601.45823581 -1551.44130355 601.43714974 -1548.7585144 601.41635132 C-1541.16931233 601.34633089 -1533.61357005 601.2013398 -1526.04077148 600.67843628 C-1517.9144999 600.11854837 -1509.80947011 599.9531468 -1501.66845703 599.85983276 C-1500.08432716 599.83898269 -1498.50020044 599.81789287 -1496.91607666 599.79658508 C-1492.67486894 599.74099856 -1488.43361338 599.69131097 -1484.19231033 599.64360809 C-1481.54110742 599.61357967 -1478.88992309 599.58221226 -1476.23873901 599.55056763 C-1449.61461156 599.23590131 -1422.99111118 599.07017833 -1396.36513901 599.05330276 C-1393.80369509 599.05123782 -1391.24225808 599.04747908 -1388.68081665 599.043396 C-1384.67369098 599.03758849 -1380.66660428 599.03735273 -1376.65947723 599.04185677 C-1375.18915583 599.0428939 -1373.71883234 599.04233729 -1372.24851227 599.04009819 C-1370.2499037 599.03756837 -1368.25128986 599.04200462 -1366.25268555 599.04684448 C-1365.13354263 599.04764008 -1364.01439972 599.04843567 -1362.86134338 599.04925537 C-1360.24267578 599.17623901 -1360.24267578 599.17623901 -1358.24267578 600.17623901 C-1358.24267578 600.83623901 -1358.24267578 601.49623901 -1358.24267578 602.17623901 C-1357.58267578 602.17623901 -1356.92267578 602.17623901 -1356.24267578 602.17623901 C-1356.24267578 602.83623901 -1356.24267578 603.49623901 -1356.24267578 604.17623901 C-1355.66517578 604.42373901 -1355.08767578 604.67123901 -1354.49267578 604.92623901 C-1351.91327599 606.3592389 -1350.18145986 607.96048578 -1348.24267578 610.17623901 C-1348.24267578 610.83623901 -1348.24267578 611.49623901 -1348.24267578 612.17623901 C-1347.66517578 612.42373901 -1347.08767578 612.67123901 -1346.49267578 612.92623901 C-1343.91327599 614.3592389 -1342.18145986 615.96048578 -1340.24267578 618.17623901 C-1340.24267578 618.83623901 -1340.24267578 619.49623901 -1340.24267578 620.17623901 C-1339.66273991 620.4309966 -1339.08280403 620.68575418 -1338.48529434 620.9482317 C-1336.00122621 622.30845135 -1334.35731122 623.81827416 -1332.36077881 625.82435608 C-1331.60115341 626.58267731 -1330.84152802 627.34099854 -1330.05888367 628.12229919 C-1329.23491592 628.95502853 -1328.41094818 629.78775787 -1327.56201172 630.64572144 C-1326.68670303 631.52234436 -1325.81139435 632.39896729 -1324.90956116 633.30215454 C-1323.007896 635.20808499 -1321.10815752 637.1157282 -1319.21144867 639.02657127 C-1316.20636402 642.05397211 -1313.19416182 645.07422367 -1310.18096924 648.09355164 C-1305.40921419 652.87668752 -1300.64215137 657.66446854 -1295.87711835 662.45430022 C-1287.36174346 671.0139322 -1278.84091649 679.56812732 -1270.31470132 688.1169613 C-1267.32703745 691.11298241 -1264.34220666 694.11178852 -1261.35969591 697.11293924 C-1259.05538964 699.43049955 -1256.74784811 701.7448359 -1254.44091797 704.05978394 C-1253.62504715 704.88239212 -1252.80917633 705.70500031 -1251.96858215 706.55253601 C-1247.7873294 710.74200941 -1243.54018258 714.76203223 -1239.01109695 718.57486439 C-1237.08264814 720.32115031 -1235.42101242 722.19034318 -1233.74267578 724.17623901 C-1230.77538408 727.68674201 -1227.54066001 730.60811694 -1224.03564453 733.57077026 C-1221.81262501 735.56131716 -1220.05161458 737.81070366 -1218.24267578 740.17623901 C-1217.58267578 740.50623901 -1216.92267578 740.83623901 -1216.24267578 741.17623901 C-1216.24267578 741.83623901 -1216.24267578 742.49623901 -1216.24267578 743.17623901 C-1215.25267578 743.50623901 -1214.26267578 743.83623901 -1213.24267578 744.17623901 C-1208.46994851 748.49442083 -1208.46994851 748.49442083 -1207.24267578 752.17623901 C-1206.58267578 752.17623901 -1205.92267578 752.17623901 -1205.24267578 752.17623901 C-1204.01099024 753.64094614 -1202.78371575 755.10984779 -1201.59033203 756.60592651 C-1200.18492725 758.34524045 -1200.18492725 758.34524045 -1197.86767578 760.05123901 C-1194.76273801 762.56476007 -1192.35097455 765.41266243 -1189.79345703 768.46920776 C-1188.33587803 770.2801849 -1188.33587803 770.2801849 -1186.24267578 771.17623901 C-1186.24267578 771.83623901 -1186.24267578 772.49623901 -1186.24267578 773.17623901 C-1185.58267578 773.17623901 -1184.92267578 773.17623901 -1184.24267578 773.17623901 C-1182.11767578 775.05123901 -1182.11767578 775.05123901 -1180.24267578 777.17623901 C-1180.24267578 777.83623901 -1180.24267578 778.49623901 -1180.24267578 779.17623901 C-1178.92267578 779.83623901 -1177.60267578 780.49623901 -1176.24267578 781.17623901 C-1176.24267578 781.83623901 -1176.24267578 782.49623901 -1176.24267578 783.17623901 C-1174.59267578 782.84623901 -1172.94267578 782.51623901 -1171.24267578 782.17623901 C-1170.91267578 781.18623901 -1170.58267578 780.19623901 -1170.24267578 779.17623901 C-1168.59627614 777.81795931 -1166.92971771 776.48369651 -1165.24267578 775.17623901 C-1164.91267578 774.51623901 -1164.58267578 773.85623901 -1164.24267578 773.17623901 C-1163.58267578 773.17623901 -1162.92267578 773.17623901 -1162.24267578 773.17623901 C-1161.91267578 772.18623901 -1161.58267578 771.19623901 -1161.24267578 770.17623901 C-1159.80517578 768.48873901 -1159.80517578 768.48873901 -1158.24267578 767.17623901 C-1157.58267578 767.17623901 -1156.92267578 767.17623901 -1156.24267578 767.17623901 C-1155.58267578 765.85623901 -1154.92267578 764.53623901 -1154.24267578 763.17623901 C-1153.58267578 763.17623901 -1152.92267578 763.17623901 -1152.24267578 763.17623901 C-1151.98486328 762.59358276 -1151.72705078 762.01092651 -1151.46142578 761.41061401 C-1150.14433562 758.99594871 -1148.69179194 757.35883724 -1146.74267578 755.42623901 C-1146.13423828 754.81264526 -1145.52580078 754.19905151 -1144.89892578 753.56686401 C-1143.24267578 752.17623901 -1143.24267578 752.17623901 -1141.24267578 752.17623901 C-1141.03642578 751.63998901 -1140.83017578 751.10373901 -1140.61767578 750.55123901 C-1138.71017152 747.25645893 -1136.19448194 744.58260273 -1133.24267578 742.17623901 C-1132.58267578 742.17623901 -1131.92267578 742.17623901 -1131.24267578 742.17623901 C-1130.8965625 741.33899292 -1130.8965625 741.33899292 -1130.54345703 740.48483276 C-1128.89734069 737.56334701 -1126.83194447 735.57569235 -1124.43017578 733.23873901 C-1123.57810547 732.40471558 -1122.72603516 731.57069214 -1121.84814453 730.71139526 C-1120.98833984 729.8747937 -1120.12853516 729.03819214 -1119.24267578 728.17623901 C-1117.57471662 726.51086584 -1115.90803063 724.84421647 -1114.24267578 723.17623901 C-1113.03998047 721.99094604 -1113.03998047 721.99094604 -1111.81298828 720.78170776 C-1107.18868666 716.20911558 -1102.74922211 711.60006699 -1098.61767578 706.57467651 C-1098.16392578 706.11319214 -1097.71017578 705.65170776 -1097.24267578 705.17623901 C-1096.58267578 705.17623901 -1095.92267578 705.17623901 -1095.24267578 705.17623901 C-1095.24267578 704.51623901 -1095.24267578 703.85623901 -1095.24267578 703.17623901 C-1094.58267578 703.17623901 -1093.92267578 703.17623901 -1093.24267578 703.17623901 C-1092.99517578 702.59873901 -1092.74767578 702.02123901 -1092.49267578 701.42623901 C-1091.0596759 698.84683922 -1089.45842902 697.11502309 -1087.24267578 695.17623901 C-1086.58267578 695.17623901 -1085.92267578 695.17623901 -1085.24267578 695.17623901 C-1084.99517578 694.59873901 -1084.74767578 694.02123901 -1084.49267578 693.42623901 C-1083.0596759 690.84683922 -1081.45842902 689.11502309 -1079.24267578 687.17623901 C-1078.58267578 687.17623901 -1077.92267578 687.17623901 -1077.24267578 687.17623901 C-1077.00782471 686.61541626 -1076.77297363 686.05459351 -1076.53100586 685.47677612 C-1074.92997474 682.61785699 -1072.96129416 680.67038213 -1070.62939453 678.36764526 C-1069.7109375 677.45563354 -1068.79248047 676.54362183 -1067.84619141 675.60397339 C-1066.87431404 674.64876518 -1065.90230778 673.69368809 -1064.93017578 672.73873901 C-1063.96942733 671.78803379 -1063.00913621 670.83686616 -1062.04931641 669.88522339 C-1060.27058316 668.12389215 -1058.4898007 666.3646262 -1056.70629883 664.60812378 C-1051.45566499 659.52015611 -1051.45566499 659.52015611 -1046.61767578 654.05123901 C-1043.02990982 649.70815391 -1043.02990982 649.70815391 -1041.24267578 648.17623901 C-1040.58267578 648.17623901 -1039.92267578 648.17623901 -1039.24267578 648.17623901 C-1038.91267578 647.18623901 -1038.58267578 646.19623901 -1038.24267578 645.17623901 C-1036.30517578 642.98873901 -1036.30517578 642.98873901 -1034.24267578 641.17623901 C-1033.58267578 641.17623901 -1032.92267578 641.17623901 -1032.24267578 641.17623901 C-1032.24267578 640.51623901 -1032.24267578 639.85623901 -1032.24267578 639.17623901 C-1031.58267578 639.17623901 -1030.92267578 639.17623901 -1030.24267578 639.17623901 C-1029.58267578 637.85623901 -1028.92267578 636.53623901 -1028.24267578 635.17623901 C-1027.58267578 635.17623901 -1026.92267578 635.17623901 -1026.24267578 635.17623901 C-1026.02611328 634.63483276 -1025.80955078 634.09342651 -1025.58642578 633.53561401 C-1023.77767581 630.35978558 -1021.32543779 627.9689582 -1018.74267578 625.42623901 C-1018.24380859 624.91963745 -1017.74494141 624.41303589 -1017.23095703 623.89108276 C-1013.49608717 620.17623901 -1013.49608717 620.17623901 -1011.24267578 620.17623901 C-1010.97944016 619.58735901 -1010.71620453 618.998479 -1010.44499207 618.39175415 C-1009.18801123 616.07550834 -1007.87605665 614.57432442 -1006.00561523 612.72799683 C-1005.34765457 612.07341492 -1004.68969391 611.41883301 -1004.01179504 610.74441528 C-1003.3003685 610.04644836 -1002.58894196 609.34848145 -1001.85595703 608.62936401 C-1000.75310616 607.53431549 -1000.75310616 607.53431549 -999.62797546 606.41714478 C-997.27507328 604.08204413 -994.91561907 601.75371454 -992.55517578 599.42623901 C-990.21341106 597.11224035 -987.87317064 594.79675281 -985.53593445 592.47817993 C-984.0828777 591.03721527 -982.6271577 589.59892927 -981.16828918 588.16384888 C-977.20103932 584.2350567 -973.44277393 580.20705608 -969.83879089 575.9413147 C-967.72935049 573.60857445 -965.37539188 571.68212515 -962.94580078 569.69577026 C-960.51190401 567.5242431 -958.52279005 565.05134255 -956.50439453 562.49655151 C-956.08802734 562.06084839 -955.67166016 561.62514526 -955.24267578 561.17623901 C-954.58267578 561.17623901 -953.92267578 561.17623901 -953.24267578 561.17623901 C-952.91267578 560.18623901 -952.58267578 559.19623901 -952.24267578 558.17623901 C-951.58267578 558.17623901 -950.92267578 558.17623901 -950.24267578 558.17623901 C-950.03642578 557.63998901 -949.83017578 557.10373901 -949.61767578 556.55123901 C-947.71017152 553.25645893 -945.19448194 550.58260273 -942.24267578 548.17623901 C-941.58267578 548.17623901 -940.92267578 548.17623901 -940.24267578 548.17623901 C-939.99718994 547.6040564 -939.7517041 547.03187378 -939.4987793 546.44235229 C-938.02998795 543.79253281 -936.3113153 542.03524618 -934.14501953 539.91842651 C-933.34386719 539.1282312 -932.54271484 538.33803589 -931.71728516 537.52389526 C-930.88003906 536.7079187 -930.04279297 535.89194214 -929.18017578 535.05123901 C-927.52044956 533.42585195 -925.86278831 531.79835274 -924.20751953 530.16842651 C-923.47138428 529.45025757 -922.73524902 528.73208862 -921.97680664 527.99215698 C-920.17244571 526.28102356 -920.17244571 526.28102356 -919.24267578 524.17623901 C-918.58267578 524.17623901 -917.92267578 524.17623901 -917.24267578 524.17623901 C-917.24267578 523.51623901 -917.24267578 522.85623901 -917.24267578 522.17623901 C-915.74658203 520.73873901 -915.74658203 520.73873901 -913.80517578 519.17623901 C-911.0907934 517.03098858 -911.0907934 517.03098858 -909.24267578 514.17623901 C-908.58267578 514.17623901 -907.92267578 514.17623901 -907.24267578 514.17623901 C-907.24267578 513.51623901 -907.24267578 512.85623901 -907.24267578 512.17623901 C-905.80825286 510.9753268 -904.36938608 509.77910059 -902.90283203 508.61764526 C-901.21151447 507.14918366 -899.88133539 505.61718085 -898.49267578 503.86373901 C-897.75017578 502.97686401 -897.00767578 502.08998901 -896.24267578 501.17623901 C-895.58267578 501.17623901 -894.92267578 501.17623901 -894.24267578 501.17623901 C-893.91267578 500.18623901 -893.58267578 499.19623901 -893.24267578 498.17623901 C-891.80517578 496.48873901 -891.80517578 496.48873901 -890.24267578 495.17623901 C-889.58267578 495.17623901 -888.92267578 495.17623901 -888.24267578 495.17623901 C-888.24267578 494.51623901 -888.24267578 493.85623901 -888.24267578 493.17623901 C-886.00331649 490.68806202 -884.08780524 488.58673046 -881.05517578 487.11373901 C-879.06375421 486.3092174 -879.06375421 486.3092174 -878.24267578 484.17623901 C-876.97844814 481.64778373 -875.7142205 481.41201137 -873.24267578 480.17623901 C-871.97463012 478.14264421 -871.97463012 478.14264421 -871.24267578 476.17623901 C-870.58267578 476.17623901 -869.92267578 476.17623901 -869.24267578 476.17623901 C-869.01580078 475.61936401 -868.78892578 475.06248901 -868.55517578 474.48873901 C-866.87037071 471.52027294 -864.68326904 469.5692441 -862.24267578 467.17623901 C-861.22620607 466.14058126 -860.21194681 465.1027502 -859.19970703 464.06295776 C-858.15157546 462.99650679 -857.10339792 461.93010097 -856.05517578 460.86373901 C-855.52214844 460.31395386 -854.98912109 459.7641687 -854.43994141 459.19772339 C-853.07842622 457.81908223 -851.66427076 456.49284175 -850.24267578 455.17623901 C-849.58267578 455.17623901 -848.92267578 455.17623901 -848.24267578 455.17623901 C-847.98873047 454.59358276 -847.73478516 454.01092651 -847.47314453 453.41061401 C-846.10947245 450.93435869 -844.60042375 449.37103276 -842.55517578 447.42623901 C-839.75879429 444.70584615 -837.10254169 441.94390692 -834.55517578 438.98873901 C-827.22165044 430.5025639 -827.22165044 430.5025639 -823.24267578 429.17623901 C-822.55312309 427.85459636 -821.89022876 426.51895915 -821.24267578 425.17623901 C-819.96084097 423.71281094 -818.62337368 422.29678472 -817.24267578 420.92623901 C-816.54142578 420.21983276 -815.84017578 419.51342651 -815.11767578 418.78561401 C-813.24267578 417.17623901 -813.24267578 417.17623901 -811.24267578 417.17623901 C-810.91267578 416.18623901 -810.58267578 415.19623901 -810.24267578 414.17623901 C-809.58267578 414.17623901 -808.92267578 414.17623901 -808.24267578 414.17623901 C-807.99517578 413.60389526 -807.74767578 413.03155151 -807.49267578 412.44186401 C-806.04951379 409.8261329 -804.36051356 408.02850445 -802.24267578 405.92623901 C-801.54142578 405.21983276 -800.84017578 404.51342651 -800.11767578 403.78561401 C-798.24267578 402.17623901 -798.24267578 402.17623901 -796.24267578 402.17623901 C-795.97820145 401.5864476 -795.71372711 400.99665619 -795.4412384 400.38899231 C-794.19916925 398.09591845 -792.91140681 396.60345476 -791.06567383 394.77218628 C-790.42127853 394.12794205 -789.77688324 393.48369781 -789.11296082 392.81993103 C-788.41713394 392.13442673 -787.72130707 391.44892242 -787.00439453 390.74264526 C-786.28661331 390.02769394 -785.56883209 389.31274261 -784.82929993 388.5761261 C-782.53424799 386.29225564 -780.23235302 384.01542469 -777.93017578 381.73873901 C-776.39130517 380.20990417 -774.85288848 378.68061228 -773.31494141 377.15084839 C-770.48205535 374.33427959 -767.64657877 371.52037747 -764.80786133 368.70968628 C-761.94401115 365.87392735 -759.0921972 363.02640013 -756.24267578 360.17623901 C-755.43830078 359.39248901 -754.63392578 358.60873901 -753.80517578 357.80123901 C-751.83580728 355.78383713 -750.00093974 353.75931262 -748.18017578 351.61373901 C-745.97110347 349.01282611 -743.7934989 346.45375966 -741.24267578 344.17623901 C-740.58267578 344.17623901 -739.92267578 344.17623901 -739.24267578 344.17623901 C-739.24267578 343.51623901 -739.24267578 342.85623901 -739.24267578 342.17623901 C-738.58267578 342.17623901 -737.92267578 342.17623901 -737.24267578 342.17623901 C-736.58267578 340.85623901 -735.92267578 339.53623901 -735.24267578 338.17623901 C-734.58267578 338.17623901 -733.92267578 338.17623901 -733.24267578 338.17623901 C-732.87686401 337.32146973 -732.87686401 337.32146973 -732.50366211 336.44943237 C-731.01383058 333.76369735 -729.25362402 331.96148728 -727.06689453 329.80514526 C-726.23867187 328.98336792 -725.41044922 328.16159058 -724.55712891 327.31491089 C-723.25678711 326.03970581 -723.25678711 326.03970581 -721.93017578 324.73873901 C-721.07488281 323.89246948 -720.21958984 323.04619995 -719.33837891 322.17428589 C-716.05214137 318.92368532 -712.75957538 315.68012575 -709.44970703 312.45358276 C-707.73946434 310.68885447 -706.16689634 308.92383609 -704.60473633 307.03390503 C-703.82525635 306.09087524 -703.04577637 305.14784546 -702.24267578 304.17623901 C-756.16207044 303.827543 -810.06763753 304.38774085 -863.98169851 305.07996845 C-866.60017892 305.11351485 -869.21866225 305.14682224 -871.83714676 305.18004608 C-907.18945176 305.62880846 -942.54017693 306.10740388 -977.88859558 306.80439758 C-1005.00314104 307.337916 -1032.11960016 307.7481015 -1059.23644066 308.14411783 C-1061.44903713 308.17651519 -1063.6616299 308.20915545 -1065.8742218 308.24186325 C-1103.34125389 308.7951679 -1140.80746583 309.24267531 -1178.27783203 309.49264526 C-1179.11741951 309.49827217 -1179.95700698 309.50389907 -1180.8220365 309.50969648 C-1197.21672005 309.61915936 -1213.61144852 309.71883121 -1230.00630015 309.79950291 C-1236.08931929 309.82944273 -1242.17232148 309.86192142 -1248.25531846 309.89606327 C-1251.76150537 309.91548211 -1255.2676804 309.9331058 -1258.77389717 309.9461689 C-1271.02923086 309.99358019 -1283.21656079 310.05127186 -1295.4420166 310.95115662 C-1303.39465187 311.42212708 -1311.36448538 311.34095556 -1319.32861328 311.34420776 C-1321.20667546 311.34742946 -1323.08473739 311.35079418 -1324.96279907 311.35429382 C-1328.86045923 311.36022559 -1332.75809738 311.36213931 -1336.65576172 311.36154175 C-1341.65707713 311.36143903 -1346.65825405 311.3752293 -1351.65953636 311.39231396 C-1355.51985329 311.40339271 -1359.38013587 311.40546244 -1363.24046707 311.40493202 C-1365.08651849 311.40611305 -1366.93257077 311.41054168 -1368.77860641 311.41826439 C-1371.34143944 311.42800525 -1373.90395937 311.42521279 -1376.46679688 311.41915894 C-1377.22928238 311.42477844 -1377.99176788 311.43039795 -1378.77735901 311.43618774 C-1384.01434121 311.40457359 -1384.01434121 311.40457359 -1386.24267578 309.17623901 C-1386.00054946 304.69690209 -1383.99527846 302.56099457 -1381.24267578 299.17623901 C-1380.07772385 297.45989453 -1378.93311355 295.72963183 -1377.80517578 293.98873901 C-1374.24265428 288.58491427 -1370.4945044 283.34227154 -1366.68017578 278.11373901 C-1362.51994777 272.40510655 -1358.54806001 266.65517999 -1354.82470703 260.64889526 C-1353.18059958 258.0792162 -1351.42809143 255.63135755 -1349.61767578 253.17623901 C-1345.98564774 248.24955743 -1342.50463736 243.23228515 -1339.05517578 238.17623901 C-1338.22578491 236.96061279 -1338.22578491 236.96061279 -1337.37963867 235.72042847 C-1335.66617315 233.20647596 -1333.9542068 230.69150888 -1332.24267578 228.17623901 C-1325.40145625 218.12524223 -1318.53380853 208.10425771 -1311.43798828 198.23092651 C-1306.59108218 191.48665504 -1301.88975466 184.66309355 -1297.30517578 177.73873901 C-1293.72962079 172.33837159 -1290.02083264 167.06968011 -1286.17626953 161.85592651 C-1283.4033264 158.01301947 -1280.8051296 154.06101154 -1278.19580078 150.10592651 C-1275.7915577 146.49956189 -1273.30024723 142.96014572 -1270.78564453 139.43014526 C-1269.16547677 137.13256905 -1269.16547677 137.13256905 -1267.66845703 134.39108276 C-1267.19794922 133.66018433 -1266.72744141 132.92928589 -1266.24267578 132.17623901 C-1265.58267578 132.17623901 -1264.92267578 132.17623901 -1264.24267578 132.17623901 C-1264.03513672 131.53299683 -1263.82759766 130.88975464 -1263.61376953 130.22702026 C-1261.67637062 125.9161697 -1259.00655064 122.22933884 -1256.30517578 118.36373901 C-1255.72687012 117.52786255 -1255.14856445 116.69198608 -1254.55273438 115.83078003 C-1253.36252663 114.11066741 -1252.17046259 112.39183777 -1250.9765625 110.67428589 C-1248.89077264 107.66924479 -1246.82141861 104.65317508 -1244.75366211 101.63571167 C-1240.85220568 95.94399736 -1236.92411192 90.27201869 -1232.95751953 84.62545776 C-1231.02025341 81.85856515 -1229.09985087 79.08036497 -1227.18017578 76.30123901 C-1223.15146338 70.47968037 -1219.10819976 64.6683988 -1215.05517578 58.86373901 C-1214.4730835 58.02794312 -1213.89099121 57.19214722 -1213.29125977 56.33102417 C-1210.60155811 52.48334685 -1207.88318339 48.67269998 -1205.04345703 44.93405151 C-1202.05571881 40.98612763 -1199.5022672 36.83598154 -1196.95361328 32.59420776 C-1194.78825995 29.53403947 -1192.85171386 27.46617714 -1189.06724548 26.78424072 C-1187.88745872 26.77211044 -1187.88745872 26.77211044 -1186.68383789 26.75973511 C-1185.33478615 26.73488541 -1185.33478615 26.73488541 -1183.95848083 26.70953369 C-1182.9887886 26.70628082 -1182.01909637 26.70302795 -1181.02001953 26.69967651 C-1180.00533096 26.68409698 -1178.9906424 26.66851746 -1177.94520569 26.65246582 C-1174.69020508 26.60496121 -1171.43541262 26.57727512 -1168.18017578 26.55123901 C-1164.97865689 26.51429748 -1161.77724364 26.47307869 -1158.57582092 26.42858887 C-1156.58763271 26.40218489 -1154.59937219 26.3805062 -1152.61106873 26.36505127 C-1146.42671025 26.29800984 -1140.27082508 26.0316238 -1134.09741211 25.68283081 C-1124.84773405 25.1659476 -1115.61441366 24.96135583 -1106.35205078 24.85983276 C-1104.7079431 24.83913142 -1103.06383914 24.81813306 -1101.41973877 24.79685974 C-1098.00478433 24.75343963 -1094.58981341 24.71246635 -1091.17480469 24.67355347 C-1086.87098586 24.62447243 -1082.56723978 24.57083611 -1078.2634964 24.51556969 C-1063.57352168 24.32769006 -1048.88721933 24.14138592 -1034.19580078 24.21139526 C-1027.45829703 24.2398707 -1020.83605514 24.00218196 -1014.11865234 23.43014526 C-1004.47248874 22.79824742 -994.78116833 22.82570327 -985.11767578 22.67623901 C-981.77966967 22.62411312 -978.44170972 22.57069988 -975.10379028 22.51327515 C-973.04433212 22.47785844 -970.98482277 22.44522256 -968.92526245 22.41635132 C-962.53015988 22.3066277 -956.15483824 22.02948583 -949.76879883 21.68991089 C-939.25096567 21.13699863 -928.73711233 20.87969215 -918.20751953 20.67623901 C-916.2224942 20.63580365 -914.23747335 20.59514829 -912.25245667 20.55429077 C-906.98420684 20.44671683 -901.71588658 20.34308241 -896.44754028 20.24035645 C-893.15201661 20.17568643 -889.85652277 20.10966335 -886.56103516 20.04318237 C-859.62244752 19.49986573 -832.68437517 19.02957548 -805.74267578 18.67623901 C-775.99273816 18.28518619 -746.26560857 17.44649134 -716.53027344 16.45748901 C-715.30053299 16.41664688 -714.07079254 16.37580475 -712.80378723 16.33372498 C-709.22022879 16.21221361 -705.63713065 16.07989236 -702.05400085 15.94636536 C-683.87435218 15.27909675 -665.69857973 14.86224033 -647.51038098 14.53492093 C-643.49133257 14.46188305 -639.47234611 14.38558081 -635.45335388 14.30952454 C-622.71354504 14.06900509 -609.97364645 13.83338345 -597.23370689 13.59989733 C-586.40459121 13.40134637 -575.5755472 13.19924705 -564.74658203 12.99264526 C-563.92330138 12.9769843 -563.10002074 12.96132334 -562.25179219 12.94518781 C-535.12049293 12.42774649 -507.99787673 11.7239023 -480.87381768 10.91563392 C-461.5968612 10.3417322 -442.32485077 9.86108912 -423.0401001 9.65524292 C-416.74695166 9.58757573 -410.45403382 9.50262206 -404.16107941 9.4190712 C-402.08206166 9.391593 -400.00303721 9.36467658 -397.92401123 9.33782959 C-385.57056666 9.17652022 -373.21915085 8.94784411 -360.86767578 8.67623901 C-359.57444901 8.64915359 -359.57444901 8.64915359 -358.25509644 8.621521 C-357.01519455 8.59531174 -357.01519455 8.59531174 -355.75024414 8.568573 C-355.04483994 8.55382431 -354.33943573 8.53907562 -353.61265564 8.52388 C-346.86358111 8.3582882 -340.12150164 8.13759267 -333.37768078 7.82131958 C-321.71910197 7.27649924 -310.06599421 6.94295426 -298.39705467 6.73068237 C-295.3027559 6.67427216 -292.20854666 6.61414005 -289.11433411 6.55319214 C-281.44413534 6.40276851 -273.77383536 6.257846 -266.10351562 6.11373901 C-259.5744617 5.99095654 -253.04546922 5.86552857 -246.51653481 5.73654175 C-243.50481403 5.67806737 -240.49304111 5.62335701 -237.48124695 5.56881714 C-229.11776444 5.40872505 -220.77491178 5.19369513 -212.42529297 4.67623901 C-202.15971267 4.04557249 -191.89008346 3.89260426 -181.60804939 3.73068237 C-178.05801009 3.67474492 -174.50806584 3.61445294 -170.95811462 3.55319214 C-163.40719702 3.42369226 -155.85619275 3.29978488 -148.30517578 3.17623901 C-139.56862202 3.03263519 -130.83211607 2.88660062 -122.0956707 2.73654175 C-118.65170932 2.67833276 -115.20770693 2.62344114 -111.76368713 2.56881714 C-98.2595084 2.34470688 -84.77008532 1.94360822 -71.27464294 1.40830994 C-62.26643066 1.05244751 -53.25546079 0.81749698 -44.24267578 0.61373901 C-43.33696838 0.59322479 -42.43126099 0.57271057 -41.49810791 0.55157471 C-27.66660355 0.24669492 -13.83486141 0.04948854 0 0 Z " fill="#FFFFFF" transform="translate(2507.24267578125,967.8237609863281)"/>
</svg>
